<svg xmlns="http://www.w3.org/2000/svg" width="1000" height="620" viewBox="0 0 1000 620">
<rect width="100%" height="100%" fill="white"/>
<text x="10" y="25" font-size="20" font-weight="bold">Phase 44 — Top Validation Mean Uplifts (₹/expiry)</text>
<line x1="330" y1="30" x2="330" y2="600" stroke="#333"/>
<text x="10" y="67" font-size="15">put_backspread | 1030 | NORMAL</text><rect x="330" y="40" width="590" height="42" fill="#4c78a8" opacity="0.85"/><text x="926" y="67" font-size="14">356.7</text><text x="10" y="119" font-size="15">put_backspread | 1100 | NORMAL</text><rect x="330" y="92" width="451.3003896027158" height="42" fill="#4c78a8" opacity="0.85"/><text x="787.3003896027158" y="119" font-size="14">272.9</text><text x="10" y="171" font-size="15">put_backspread | 1030 | NORMAL</text><rect x="330" y="144" width="289.4985967407358" height="42" fill="#4c78a8" opacity="0.85"/><text x="625.4985967407358" y="171" font-size="14">175.0</text><text x="10" y="223" font-size="15">iron_butterfly | 930 | FALLING</text><rect x="330" y="196" width="231.10459469995843" height="42" fill="#4c78a8" opacity="0.85"/><text x="567.1045946999584" y="223" font-size="14">139.7</text><text x="10" y="275" font-size="15">iron_butterfly | 1000 | FALLING</text><rect x="330" y="248" width="218.56811491712915" height="42" fill="#4c78a8" opacity="0.85"/><text x="554.5681149171292" y="275" font-size="14">132.1</text><text x="10" y="327" font-size="15">put_backspread | 1100 | NORMAL</text><rect x="330" y="300" width="159.7294328593408" height="42" fill="#4c78a8" opacity="0.85"/><text x="495.7294328593408" y="327" font-size="14">96.6</text><text x="10" y="379" font-size="15">iron_butterfly | 1100 | FALLING</text><rect x="330" y="352" width="151.9396856135459" height="42" fill="#4c78a8" opacity="0.85"/><text x="487.93968561354586" y="379" font-size="14">91.9</text><text x="10" y="431" font-size="15">iron_butterfly | 1030 | FALLING</text><rect x="330" y="404" width="118.88382893966333" height="42" fill="#4c78a8" opacity="0.85"/><text x="454.8838289396633" y="431" font-size="14">71.9</text><text x="10" y="483" font-size="15">iron_butterfly | 1100 | FALLING</text><rect x="330" y="456" width="66.24102871925447" height="42" fill="#4c78a8" opacity="0.85"/><text x="402.2410287192545" y="483" font-size="14">40.1</text><text x="10" y="535" font-size="15">bear_put_debit | 1100 | NORMAL</text><rect x="330" y="508" width="289.3305475776214" height="42" fill="#e45756" opacity="0.85"/><text x="336" y="535" font-size="14">-174.9</text>
</svg>