<svg xmlns="http://www.w3.org/2000/svg" viewBox="0 0 960 560"><style>text{font-family:Arial,sans-serif;fill:currentColor}.bar{fill:currentColor;opacity:.55}.axis{stroke:currentColor;stroke-width:1}</style><text x="480" y="32" text-anchor="middle" font-size="20">Phase 36 primary-sample net P&L</text><line class="axis" x1="585" y1="60" x2="585" y2="486" /><text x="238" y="90" text-anchor="end" font-size="14">Stateful control</text><rect class="bar" x="585.00" y="70" width="229.41" height="28" rx="3"/><text x="822.4126606174175" y="90" text-anchor="start" font-size="13">₹63,673</text><text x="238" y="142" text-anchor="end" font-size="14">OTM789 fresh</text><rect class="bar" x="444.04" y="122" width="140.96" height="28" rx="3"/><text x="436.041846812464" y="142" text-anchor="end" font-size="13">₹-39,122</text><text x="238" y="194" text-anchor="end" font-size="14">DART</text><rect class="bar" x="388.73" y="174" width="196.27" height="28" rx="3"/><text x="380.7254066637104" y="194" text-anchor="end" font-size="13">₹-54,475</text><text x="238" y="246" text-anchor="end" font-size="14">OOF stack</text><rect class="bar" x="369.29" y="226" width="215.71" height="28" rx="3"/><text x="361.2921997725697" y="246" text-anchor="end" font-size="13">₹-59,869</text><text x="238" y="298" text-anchor="end" font-size="14">OTM678 fresh</text><rect class="bar" x="359.22" y="278" width="225.78" height="28" rx="3"/><text x="351.2166829267978" y="298" text-anchor="end" font-size="13">₹-62,665</text><text x="238" y="350" text-anchor="end" font-size="14">Wavelet-tree</text><rect class="bar" x="345.77" y="330" width="239.23" height="28" rx="3"/><text x="337.76756387241574" y="350" text-anchor="end" font-size="13">₹-66,398</text><text x="238" y="402" text-anchor="end" font-size="14">Markov-regime</text><rect class="bar" x="267.35" y="382" width="317.65" height="28" rx="3"/><text x="259.3466343034309" y="402" text-anchor="end" font-size="13">₹-88,163</text><text x="238" y="454" text-anchor="end" font-size="14">CatBoost</text><rect class="bar" x="250.00" y="434" width="335.00" height="28" rx="3"/><text x="242" y="454" text-anchor="end" font-size="13">₹-92,978</text><text x="585" y="514" text-anchor="middle" font-size="12">zero</text></svg>